<svg width="70" height="70" viewBox="0 0 70 70" fill="none" xmlns="http://www.w3.org/2000/svg">
<circle cx="34.9651" cy="34.9651" r="34.9651" fill="#0D0D0D"/>
<path d="M34.9998 69.998C15.8121 70.2039 0.164042 54.5798 0.00119096 35.0665C-0.15687 15.9219 15.4385 0.130129 34.631 0.000805865C54.1779 -0.128517 69.8786 15.3232 69.9984 34.8126C70.1181 54.2637 54.6712 69.792 34.9998 69.998ZM34.9279 68.2641C53.3157 68.2593 68.2693 53.3106 68.2549 34.9467C68.2405 16.6068 53.2391 1.71553 34.813 1.73948C16.8275 1.76822 1.75423 16.7313 1.74465 34.5731C1.73507 53.2914 16.4875 68.2689 34.9279 68.2641Z" fill="white"/>
<path d="M53.0426 13.7996C48.2864 15.6197 47.1369 19.2647 50.1879 23.8245C53.0522 28.1065 54.3646 32.5562 52.8654 37.6093C51.826 41.1154 50.7292 44.6071 49.6515 48.1036C49.3785 48.9897 49.0767 49.8711 48.5738 51.4181C45.1348 41.1825 41.9113 31.6078 38.659 21.9517C39.7224 21.8463 40.6612 21.9277 41.4371 21.6164C42.0262 21.3769 42.4094 20.6345 42.8836 20.1124C42.3184 19.7053 41.758 18.9581 41.1832 18.9485C37.2748 18.8671 33.3664 18.9437 29.458 18.9533C28.6629 18.9533 27.8295 18.7282 27.0775 18.8958C26.5075 19.0252 26.0381 19.6095 25.5208 19.9927C25.9663 20.5291 26.4644 21.5589 26.8524 21.5158C29.5394 21.2428 29.8747 23.2018 30.7943 24.9884C33.807 30.8223 33.8406 36.4981 30.9955 42.423C29.6352 45.2537 28.9455 48.4006 27.8342 51.7486C24.4575 41.6662 21.1957 31.9527 17.8476 21.9852C18.82 21.8846 19.6917 21.9469 20.4389 21.6691C21.0664 21.4344 21.5501 20.7974 22.0961 20.3376C21.5022 19.8346 20.9322 18.9389 20.3096 18.9006C17.6944 18.7378 15.0648 18.8336 12.464 18.8336C17.9482 7.33821 39.9283 1.45163 53.0426 13.7996Z" fill="white"/>
<path d="M35.4548 37.6523C38.4148 45.8332 41.1929 53.5016 43.9565 61.146C41.1067 63.1146 32.8827 63.7516 27.0967 61.8357C29.8268 53.9422 32.5522 46.0535 35.4548 37.6523Z" fill="white"/>
<path d="M22.3261 59.7479C9.39378 53.7608 3.56468 37.8588 9.33152 23.8105C11.6114 30.0755 13.7285 35.8855 15.8312 41.7002C17.9626 47.582 20.0701 53.4734 22.3261 59.7479Z" fill="white"/>
<path d="M49.532 58.6029C52.7459 46.6621 58.6468 35.6553 60.4143 23.6953C66.6457 34.0986 62.0236 51.6243 49.532 58.6029Z" fill="white"/>
</svg>
